<svg width="22" height="22" viewBox="0 0 22 22" fill="none" xmlns="http://www.w3.org/2000/svg">
<path fill-rule="evenodd" clip-rule="evenodd" d="M16.3249 12.2783C17.8878 10.9794 18.974 9.12316 19.2426 6.98824C19.3059 6.48682 18.9502 6.02849 18.4469 5.96524C17.952 5.89741 17.4863 6.25766 17.424 6.75999C17.0215 9.96099 14.2596 12.3746 11 12.3746C7.74028 12.3746 4.97837 9.96099 4.57595 6.75999C4.51362 6.25766 4.04612 5.90107 3.55203 5.96524C3.0497 6.02849 2.69403 6.48682 2.75728 6.98824C3.02587 9.12316 4.11212 10.9794 5.67503 12.2783L3.5557 14.3977C3.19912 14.7542 3.19912 15.3372 3.5557 15.6938C3.91137 16.0504 4.49528 16.0504 4.85187 15.6938L7.23795 13.3077C8.11245 13.7496 9.0722 14.0411 10.0833 14.152V17.4162C10.0833 17.9204 10.4958 18.3329 11 18.3329C11.5041 18.3329 11.9166 17.9204 11.9166 17.4162V14.152C12.9268 14.0411 13.8875 13.7496 14.761 13.3077L17.148 15.6938C17.5046 16.0504 18.0876 16.0504 18.4442 15.6938C18.8008 15.3372 18.8008 14.7542 18.4442 14.3977L16.3249 12.2783Z" fill="#BFBFBF"/>
</svg>
