<svg width="25" height="25" viewBox="0 0 19 19" fill="none" xmlns="http://www.w3.org/2000/svg">
    <path d="M16.3162 4.79222C13.8093 4.54715 11.2874 4.4209 8.77303 4.4209C7.28247 4.4209 5.79191 4.49516 4.30135 4.64369L2.76562 4.79222" stroke="white" stroke-width="1.5" stroke-linecap="round" stroke-linejoin="round"/>
    <path d="M6.90625 4.04254L7.07187 3.06969C7.19232 2.36418 7.28265 1.83691 8.5549 1.83691H10.5273C11.7995 1.83691 11.8974 2.39389 12.0103 3.07711L12.1759 4.04254" stroke="white" stroke-width="1.5" stroke-linecap="round" stroke-linejoin="round"/>
    <path d="M14.6963 7.13965L14.207 14.618C14.1241 15.7839 14.0564 16.6899 11.9561 16.6899H7.12303C5.0227 16.6899 4.95495 15.7839 4.87214 14.618L4.38281 7.13965" stroke="white" stroke-width="1.5" stroke-linecap="round" stroke-linejoin="round"/>
    <path d="M8.28125 12.6055H10.7881" stroke="white" stroke-width="1.5" stroke-linecap="round" stroke-linejoin="round"/>
    <path d="M7.65625 9.63477H11.4203" stroke="white" stroke-width="1.5" stroke-linecap="round" stroke-linejoin="round"/>
</svg>
