<svg width="31" height="31" viewBox="0 0 31 31" fill="none" xmlns="http://www.w3.org/2000/svg">
<path fill-rule="evenodd" clip-rule="evenodd" d="M15.5027 17.4375C14.4345 17.4375 13.5652 16.5682 13.5652 15.5C13.5652 14.4318 14.4345 13.5625 15.5027 13.5625C16.5709 13.5625 17.4402 14.4318 17.4402 15.5C17.4402 16.5682 16.5709 17.4375 15.5027 17.4375ZM15.5027 10.9792C13.0098 10.9792 10.9818 13.0071 10.9818 15.5C10.9818 17.9929 13.0098 20.0208 15.5027 20.0208C17.9956 20.0208 20.0235 17.9929 20.0235 15.5C20.0235 13.0071 17.9956 10.9792 15.5027 10.9792ZM15.7864 21.9552C10.2245 22.0844 6.59624 17.3272 5.39241 15.4943C6.71766 13.4212 10.0553 9.17676 15.2194 9.04501C20.7594 8.90422 24.4083 13.6731 25.6122 15.5059C24.2882 17.5791 20.9492 21.8235 15.7864 21.9552ZM28.2484 14.8575C27.4244 13.4212 22.8725 6.22143 15.1535 6.46297C8.0132 6.6438 3.86049 12.9342 2.75741 14.8575C2.52878 15.2553 2.52878 15.7449 2.75741 16.1427C3.56986 17.5597 7.96153 24.5411 15.5346 24.5411C15.6405 24.5411 15.7464 24.5398 15.8523 24.5373C22.9914 24.3551 27.1454 18.066 28.2484 16.1427C28.4758 15.7449 28.4758 15.2553 28.2484 14.8575Z" fill="#29648A"/>
<mask id="mask0_1653_3917" style="mask-type:luminance" maskUnits="userSpaceOnUse" x="2" y="6" width="27" height="19">
<path fill-rule="evenodd" clip-rule="evenodd" d="M15.5027 17.4375C14.4345 17.4375 13.5652 16.5682 13.5652 15.5C13.5652 14.4318 14.4345 13.5625 15.5027 13.5625C16.5709 13.5625 17.4402 14.4318 17.4402 15.5C17.4402 16.5682 16.5709 17.4375 15.5027 17.4375ZM15.5027 10.9792C13.0098 10.9792 10.9818 13.0071 10.9818 15.5C10.9818 17.9929 13.0098 20.0208 15.5027 20.0208C17.9956 20.0208 20.0235 17.9929 20.0235 15.5C20.0235 13.0071 17.9956 10.9792 15.5027 10.9792ZM15.7864 21.9552C10.2245 22.0844 6.59624 17.3272 5.39241 15.4943C6.71766 13.4212 10.0553 9.17676 15.2194 9.04501C20.7594 8.90422 24.4083 13.6731 25.6122 15.5059C24.2882 17.5791 20.9492 21.8235 15.7864 21.9552ZM28.2484 14.8575C27.4244 13.4212 22.8725 6.22143 15.1535 6.46297C8.0132 6.6438 3.86049 12.9342 2.75741 14.8575C2.52878 15.2553 2.52878 15.7449 2.75741 16.1427C3.56986 17.5597 7.96153 24.5411 15.5346 24.5411C15.6405 24.5411 15.7464 24.5398 15.8523 24.5373C22.9914 24.3551 27.1454 18.066 28.2484 16.1427C28.4758 15.7449 28.4758 15.2553 28.2484 14.8575Z" fill="white"/>
</mask>
<g mask="url(#mask0_1653_3917)">
</g>
</svg>
