<svg width="31" height="31" viewBox="0 0 31 31" fill="none" xmlns="http://www.w3.org/2000/svg">
<path fill-rule="evenodd" clip-rule="evenodd" d="M23.0032 17.3018C25.2055 15.4715 26.7361 12.8559 27.1146 9.8476C27.2037 9.14106 26.7026 8.49522 25.9934 8.4061C25.2959 8.31052 24.6398 8.81814 24.5519 9.52597C23.9849 14.0365 20.0931 17.4374 15.4999 17.4374C10.9068 17.4374 7.01497 14.0365 6.44793 9.52597C6.3601 8.81814 5.70135 8.31568 5.00514 8.4061C4.29731 8.49522 3.79614 9.14106 3.88526 9.8476C4.26372 12.8559 5.79435 15.4715 7.99664 17.3018L5.01031 20.2881C4.50785 20.7906 4.50785 21.6121 5.01031 22.1146C5.51147 22.617 6.33426 22.617 6.83672 22.1146L10.1989 18.7523C11.4312 19.3749 12.7836 19.7857 14.2083 19.942V24.5416C14.2083 25.252 14.7895 25.8333 15.4999 25.8333C16.2103 25.8333 16.7916 25.252 16.7916 24.5416V19.942C18.215 19.7857 19.5687 19.3749 20.7996 18.7523L24.1631 22.1146C24.6656 22.617 25.4871 22.617 25.9896 22.1146C26.492 21.6121 26.492 20.7906 25.9896 20.2881L23.0032 17.3018Z" fill="#29648A"/>
</svg>
