<svg width="22" height="22" viewBox="0 0 22 22" fill="none" xmlns="http://www.w3.org/2000/svg">
<path fill-rule="evenodd" clip-rule="evenodd" d="M11.0027 12.3746C10.2446 12.3746 9.62765 11.7577 9.62765 10.9996C9.62765 10.2415 10.2446 9.62461 11.0027 9.62461C11.7607 9.62461 12.3777 10.2415 12.3777 10.9996C12.3777 11.7577 11.7607 12.3746 11.0027 12.3746ZM11.0026 7.79128C9.23348 7.79128 7.79432 9.23044 7.79432 10.9996C7.79432 12.7688 9.23348 14.2079 11.0026 14.2079C12.7718 14.2079 14.211 12.7688 14.211 10.9996C14.211 9.23044 12.7718 7.79128 11.0026 7.79128ZM11.204 15.5807C7.25687 15.6724 4.68196 12.2963 3.82762 10.9956C4.76812 9.52433 7.13679 6.51216 10.8016 6.41866C14.7332 6.31875 17.3228 9.70308 18.1771 11.0038C17.2375 12.4751 14.868 15.4872 11.204 15.5807ZM20.048 10.5437C19.4632 9.52433 16.2329 4.41483 10.7549 4.58625C5.68754 4.71458 2.74046 9.17875 1.95762 10.5437C1.79538 10.826 1.79538 11.1734 1.95762 11.4557C2.53421 12.4613 5.65087 17.4159 11.0253 17.4159C11.1005 17.4159 11.1756 17.415 11.2508 17.4132C16.3172 17.2839 19.2652 12.8207 20.048 11.4557C20.2094 11.1734 20.2094 10.826 20.048 10.5437Z" fill="#BFBFBF"/>
<mask id="mask0_2095_5312" style="mask-type:luminance" maskUnits="userSpaceOnUse" x="1" y="4" width="20" height="14">
<path fill-rule="evenodd" clip-rule="evenodd" d="M11.0027 12.3746C10.2446 12.3746 9.62765 11.7577 9.62765 10.9996C9.62765 10.2415 10.2446 9.62461 11.0027 9.62461C11.7607 9.62461 12.3777 10.2415 12.3777 10.9996C12.3777 11.7577 11.7607 12.3746 11.0027 12.3746ZM11.0026 7.79128C9.23348 7.79128 7.79432 9.23044 7.79432 10.9996C7.79432 12.7688 9.23348 14.2079 11.0026 14.2079C12.7718 14.2079 14.211 12.7688 14.211 10.9996C14.211 9.23044 12.7718 7.79128 11.0026 7.79128ZM11.204 15.5807C7.25687 15.6724 4.68196 12.2963 3.82762 10.9956C4.76812 9.52433 7.13679 6.51216 10.8016 6.41866C14.7332 6.31875 17.3228 9.70308 18.1771 11.0038C17.2375 12.4751 14.868 15.4872 11.204 15.5807ZM20.048 10.5437C19.4632 9.52433 16.2329 4.41483 10.7549 4.58625C5.68754 4.71458 2.74046 9.17875 1.95762 10.5437C1.79538 10.826 1.79538 11.1734 1.95762 11.4557C2.53421 12.4613 5.65087 17.4159 11.0253 17.4159C11.1005 17.4159 11.1756 17.415 11.2508 17.4132C16.3172 17.2839 19.2652 12.8207 20.048 11.4557C20.2094 11.1734 20.2094 10.826 20.048 10.5437Z" fill="white"/>
</mask>
<g mask="url(#mask0_2095_5312)">
</g>
</svg>
