<svg width="23" height="22" viewBox="0 0 23 22" fill="none" xmlns="http://www.w3.org/2000/svg">
<path d="M10.4343 1.57773C10.8886 0.692841 12.1143 0.692841 12.5687 1.57773L14.9322 6.18129C15.1068 6.52148 15.4234 6.75935 15.7901 6.82607L20.7527 7.72887C21.7067 7.90239 22.0854 9.10828 21.4122 9.82869L17.9103 13.5767C17.6515 13.8536 17.5307 14.2386 17.5826 14.6199L18.2863 19.7814C18.4215 20.7736 17.4298 21.5188 16.5596 21.0792L12.0317 18.7921C11.6971 18.6229 11.3058 18.6229 10.9713 18.7921L6.44342 21.0792C5.57308 21.5188 4.58149 20.7736 4.71672 19.7814L5.42029 14.6199C5.47228 14.2386 5.35139 13.8536 5.09261 13.5767L1.59068 9.82869C0.917543 9.10828 1.29631 7.90239 2.25023 7.72887L7.2129 6.82607C7.57962 6.75935 7.89613 6.52147 8.07078 6.18129L10.4343 1.57773Z" stroke="#29648A" stroke-width="1.5"/>
</svg>
