<svg width="12" height="15" viewBox="0 0 12 15" fill="none" xmlns="http://www.w3.org/2000/svg">
    <path d="M5.25 14C5.25 14.4142 5.58579 14.75 6 14.75C6.41421 14.75 6.75 14.4142 6.75 14L5.25 14ZM6.53033 0.46967C6.23744 0.176777 5.76256 0.176777 5.46967 0.46967L0.696699 5.24264C0.403806 5.53553 0.403806 6.01041 0.696699 6.3033C0.989592 6.59619 1.46447 6.59619 1.75736 6.3033L6 2.06066L10.2426 6.3033C10.5355 6.59619 11.0104 6.59619 11.3033 6.3033C11.5962 6.01041 11.5962 5.53553 11.3033 5.24264L6.53033 0.46967ZM6.75 14L6.75 7.5L5.25 7.5L5.25 14L6.75 14ZM6.75 7.5L6.75 1L5.25 1L5.25 7.5L6.75 7.5Z" fill="white"/>
</svg>
