<svg width="23" height="14" viewBox="0 0 60 60" fill="none" xmlns="http://www.w3.org/2000/svg">
    <path d="M30 38.75L37.5 31.25M30 11.25V38.75V11.25ZM30 38.75L22.5 31.25L30 38.75Z" stroke="#29648A" stroke-width="1.5" stroke-linecap="round" stroke-linejoin="round"/>
    <path d="M40 47.5H20C17.5342 47.5 16.7379 47.4883 16.1312 47.3923C12.3871 46.7993 9.45073 43.8628 8.85773 40.1188C8.76165 39.512 8.75 38.7158 8.75 36.25C8.75 33.7843 8.76165 32.988 8.85773 32.3813C9.45073 28.6373 12.3871 25.7008 16.1312 25.1078C16.7379 25.0118 17.5342 25 20 25H20.625C21.6605 25 22.5 24.1605 22.5 23.125C22.5 22.0895 21.6605 21.25 20.625 21.25H20C17.6775 21.25 16.5162 21.25 15.5446 21.4039C10.1959 22.251 6.00105 26.446 5.1539 31.7945C5 32.7663 5 33.9275 5 36.25C5 38.5725 5 39.7338 5.1539 40.7055C6.00105 46.054 10.1959 50.249 15.5446 51.096C16.5162 51.25 17.6775 51.25 20 51.25H40C42.3225 51.25 43.4838 51.25 44.4555 51.096C49.804 50.249 53.999 46.054 54.846 40.7055C55 39.7338 55 38.5725 55 36.25C55 33.9275 55 32.7663 54.846 31.7945C53.999 26.446 49.804 22.251 44.4555 21.4039C43.4838 21.25 42.3225 21.25 40 21.25H39.375C38.3395 21.25 37.5 22.0895 37.5 23.125C37.5 24.1605 38.3395 25 39.375 25H40C42.4658 25 43.262 25.0118 43.8688 25.1078C47.6128 25.7008 50.5493 28.6373 51.1423 32.3813C51.2383 32.988 51.25 33.7843 51.25 36.25C51.25 38.7158 51.2383 39.512 51.1423 40.1188C50.5493 43.8628 47.6128 46.7993 43.8688 47.3923C43.262 47.4883 42.4658 47.5 40 47.5Z" fill="#29648A"/>
</svg>
