<svg viewBox="0 0 20 28" fill="none" xmlns="http://www.w3.org/2000/svg">
    <path d="M14.2345 5.87506C14.2345 8.38843 12.197 10.4259 9.68365 10.4259C7.17033 10.4259 5.13281 8.38843 5.13281 5.87506C5.13281 3.36169 7.17033 1.32422 9.68365 1.32422C12.197 1.32422 14.2345 3.36169 14.2345 5.87506Z"
          stroke-width="1.5"/>
    <path d="M18.4329 21.2773C18.4329 22.7834 17.58 24.2461 16.0018 25.3733C14.4257 26.4993 12.1944 27.2284 9.68131 27.2284C7.16826 27.2284 4.93696 26.4993 3.36079 25.3733C1.7826 24.2461 0.929688 22.7834 0.929688 21.2773C0.929688 19.7712 1.7826 18.3084 3.36079 17.1812C4.93696 16.0553 7.16826 15.3262 9.68131 15.3262C12.1944 15.3262 14.4257 16.0553 16.0018 17.1812C17.58 18.3084 18.4329 19.7712 18.4329 21.2773Z"
          stroke-width="1.5"/>
</svg>
