<svg width="" height="" viewBox="0 0 238 238" fill="none" xmlns="http://www.w3.org/2000/svg">
<path d="M127.547 105.392C127.547 110.242 123.333 114.174 118.137 114.174C112.94 114.174 108.727 110.242 108.727 105.392C108.727 100.541 112.94 96.6091 118.137 96.6091C123.333 96.6091 127.547 100.541 127.547 105.392Z" stroke="white" stroke-width="1.5"/>
<path d="M136.231 135.118C136.231 138.024 134.468 140.847 131.204 143.022C127.945 145.195 123.332 146.603 118.135 146.603C112.939 146.603 108.325 145.195 105.066 143.022C101.803 140.847 100.039 138.024 100.039 135.118C100.039 132.211 101.803 129.388 105.066 127.213C108.325 125.04 112.939 123.633 118.135 123.633C123.332 123.633 127.945 125.04 131.204 127.213C134.468 129.388 136.231 132.211 136.231 135.118Z" stroke="white" stroke-width="1.5"/>
</svg>
